# 3ds Max Wavefront OBJ Exporter v0.97b - (c)2007 guruware
# File Created: 11.01.2023 16:45:56

mtllib alcoholpad.mtl

#
# object c014
#

v  174.6079 6.9866 -5.1648
v  174.6538 6.9227 -9.9134
v  179.0523 6.4797 -9.8650
v  179.0035 7.0143 -5.1227
v  183.4478 6.5074 -9.8229
v  183.3991 7.0420 -5.0806
v  187.8434 6.5351 -9.7808
v  187.7947 7.0696 -5.0386
v  192.2361 7.0334 -9.7451
v  192.1902 7.0973 -4.9965
v  174.6996 6.8587 -14.6620
v  179.0981 6.4158 -14.6136
v  183.4952 6.1908 -14.5681
v  187.8893 6.4711 -14.5294
v  192.2820 6.9694 -14.4937
v  174.7455 6.7948 -19.4106
v  179.1440 6.3518 -19.3622
v  183.5395 6.3795 -19.3201
v  187.9351 6.4072 -19.2780
v  192.3278 6.9055 -19.2423
v  174.7913 6.7308 -24.1592
v  179.1869 6.7585 -24.1171
v  183.5825 6.7862 -24.0751
v  187.9781 6.8138 -24.0330
v  192.3736 6.8415 -23.9909
v  174.6077 7.0248 -5.1653
v  179.0033 7.0525 -5.1232
v  179.0462 7.4592 -9.8782
v  174.6535 6.9609 -9.9139
v  183.3988 7.0802 -5.0812
v  183.4418 7.4869 -9.8361
v  187.7944 7.1079 -5.0391
v  187.8374 7.5145 -9.7941
v  192.1900 7.1355 -4.9970
v  192.2359 7.0716 -9.7456
v  179.0921 7.3952 -14.6268
v  174.6994 6.8969 -14.6625
v  183.4861 7.6756 -14.5882
v  187.8832 7.4506 -14.5427
v  192.2817 7.0077 -14.4942
v  179.1379 7.3313 -19.3754
v  174.7452 6.8330 -19.4111
v  183.5335 7.3590 -19.3333
v  187.9291 7.3866 -19.2913
v  192.3276 6.9437 -19.2428
v  179.1867 6.7967 -24.1176
v  174.7911 6.7691 -24.1597
v  183.5822 6.8244 -24.0756
v  187.9778 6.8521 -24.0335
v  192.3734 6.8798 -23.9914
# 50 vertices

vn -0.5793 -0.5731 0.5796
vn -0.7398 -0.6729 0.0019
vn -0.0476 -0.9975 0.0517
vn -0.0029 -0.6692 0.7431
vn 0.0056 -0.9973 0.0732
vn 0.0592 -0.9969 0.0527
vn 0.7480 -0.6635 0.0162
vn 0.5753 -0.5659 0.5906
vn -0.0761 -0.9970 0.0127
vn 0.0062 -0.9999 0.0135
vn 0.0884 -0.9960 0.0143
vn -0.0469 -0.9986 -0.0257
vn 0.0067 -0.9989 -0.0462
vn 0.0599 -0.9979 -0.0247
vn -0.5682 -0.5887 -0.5750
vn 0.0113 -0.6889 -0.7247
vn 0.5864 -0.5814 -0.5639
vn -0.5864 0.5814 0.5639
vn -0.0113 0.6889 0.7247
vn -0.0599 0.9979 0.0247
vn -0.7480 0.6635 -0.0162
vn -0.0067 0.9989 0.0462
vn 0.0469 0.9986 0.0257
vn 0.5682 0.5887 0.5750
vn 0.7398 0.6729 -0.0019
vn -0.0884 0.9960 -0.0143
vn -0.0062 0.9999 -0.0135
vn 0.0761 0.9970 -0.0127
vn -0.0592 0.9969 -0.0527
vn -0.0056 0.9973 -0.0732
vn 0.0476 0.9975 -0.0517
vn 0.0029 0.6692 -0.7431
vn -0.5753 0.5659 -0.5906
vn 0.5793 0.5731 -0.5796
# 34 vertex normals

vt 0.9780 0.0207 0.0000
vt 0.9718 0.2575 0.0000
vt 0.7383 0.2575 0.0000
vt 0.7383 0.0252 0.0000
vt 0.5033 0.2575 0.0000
vt 0.5033 0.0229 0.0000
vt 0.2683 0.2575 0.0000
vt 0.2676 0.0286 0.0000
vt 0.0333 0.2575 0.0000
vt 0.0265 0.0348 0.0000
vt 0.9733 0.5000 0.0000
vt 0.7383 0.5000 0.0000
vt 0.5033 0.5000 0.0000
vt 0.2683 0.5000 0.0000
vt 0.0378 0.5000 0.0000
vt 0.9689 0.7425 0.0000
vt 0.7383 0.7425 0.0000
vt 0.5033 0.7425 0.0000
vt 0.2683 0.7425 0.0000
vt 0.0378 0.7425 0.0000
vt 0.9733 0.9850 0.0000
vt 0.7383 0.9850 0.0000
vt 0.5033 0.9850 0.0000
vt 0.2683 0.9850 0.0000
vt 0.0333 0.9850 0.0000
vt 0.0265 0.0263 0.0000
vt 0.2718 0.0139 0.0000
vt 0.2752 0.2453 0.0000
vt 0.0254 0.2453 0.0000
vt 0.5137 0.0187 0.0000
vt 0.5125 0.2453 0.0000
vt 0.7499 0.0139 0.0000
vt 0.7499 0.2453 0.0000
vt 0.9813 0.0184 0.0000
vt 0.9797 0.2453 0.0000
vt 0.2752 0.4853 0.0000
vt 0.0288 0.4853 0.0000
vt 0.5125 0.4853 0.0000
vt 0.7499 0.4853 0.0000
vt 0.9812 0.4853 0.0000
vt 0.2752 0.7253 0.0000
vt 0.0427 0.7253 0.0000
vt 0.5125 0.7253 0.0000
vt 0.7499 0.7253 0.0000
vt 0.9705 0.7253 0.0000
vt 0.2732 0.9743 0.0000
vt 0.0406 0.9919 0.0000
vt 0.5125 0.9709 0.0000
vt 0.7499 0.9653 0.0000
vt 0.9716 0.9775 0.0000
vt 0.0000 0.0000 0.0000
vt 0.2500 0.0000 0.0000
vt 0.2500 1.0000 0.0000
vt 0.0000 1.0000 0.0000
vt 0.5000 0.0000 0.0000
vt 0.5000 1.0000 0.0000
vt 0.7500 0.0000 0.0000
vt 0.7500 1.0000 0.0000
vt 1.0000 0.0000 0.0000
vt 1.0000 1.0000 0.0000
# 60 texture coords

o c014
g c014
usemtl Material__72
s 2
f 1/1/1 2/2/2 3/3/3 4/4/4 
f 4/4/4 3/3/3 5/5/5 6/6/4 
f 6/6/4 5/5/5 7/7/6 8/8/4 
f 8/8/4 7/7/6 9/9/7 10/10/8 
f 2/2/2 11/11/2 12/12/9 3/3/3 
f 3/3/3 12/12/9 13/13/10 5/5/5 
f 5/5/5 13/13/10 14/14/11 7/7/6 
f 7/7/6 14/14/11 15/15/7 9/9/7 
f 11/11/2 16/16/2 17/17/12 12/12/9 
f 12/12/9 17/17/12 18/18/13 13/13/10 
f 13/13/10 18/18/13 19/19/14 14/14/11 
f 14/14/11 19/19/14 20/20/7 15/15/7 
f 16/16/2 21/21/15 22/22/16 17/17/12 
f 17/17/12 22/22/16 23/23/16 18/18/13 
f 18/18/13 23/23/16 24/24/16 19/19/14 
f 19/19/14 24/24/16 25/25/17 20/20/7 
usemtl 07___Default
s 4
f 26/26/18 27/27/19 28/28/20 29/29/21 
f 27/27/19 30/30/19 31/31/22 28/28/20 
f 30/30/19 32/32/19 33/33/23 31/31/22 
f 32/32/19 34/34/24 35/35/25 33/33/23 
f 29/29/21 28/28/20 36/36/26 37/37/21 
f 28/28/20 31/31/22 38/38/27 36/36/26 
f 31/31/22 33/33/23 39/39/28 38/38/27 
f 33/33/23 35/35/25 40/40/25 39/39/28 
f 37/37/21 36/36/26 41/41/29 42/42/21 
f 36/36/26 38/38/27 43/43/30 41/41/29 
f 38/38/27 39/39/28 44/44/31 43/43/30 
f 39/39/28 40/40/25 45/45/25 44/44/31 
f 42/42/21 41/41/29 46/46/32 47/47/33 
f 41/41/29 43/43/30 48/48/32 46/46/32 
f 43/43/30 44/44/31 49/49/32 48/48/32 
f 44/44/31 45/45/25 50/50/34 49/49/32 
usemtl wire_148177027
s 8
f 1/51/1 4/52/4 27/53/19 26/54/18 
f 4/52/4 6/55/4 30/56/19 27/53/19 
f 6/55/4 8/57/4 32/58/19 30/56/19 
f 8/57/4 10/59/8 34/60/24 32/58/19 
s 16
f 10/51/8 9/52/7 35/53/25 34/54/24 
f 9/52/7 15/55/7 40/56/25 35/53/25 
f 15/55/7 20/57/7 45/58/25 40/56/25 
f 20/57/7 25/59/17 50/60/34 45/58/25 
s 32
f 25/51/17 24/52/16 49/53/32 50/54/34 
f 24/52/16 23/55/16 48/56/32 49/53/32 
f 23/55/16 22/57/16 46/58/32 48/56/32 
f 22/57/16 21/59/15 47/60/33 46/58/32 
s 64
f 21/51/15 16/52/2 42/53/21 47/54/33 
f 16/52/2 11/55/2 37/56/21 42/53/21 
f 11/55/2 2/57/2 29/58/21 37/56/21 
f 2/57/2 1/59/1 26/60/18 29/58/21 
# 48 polygons

