# 3ds Max Wavefront OBJ Exporter v0.97b - (c)2007 guruware
# File Created: 22.02.2023 14:34:13

mtllib carton.mtl

#
# object Box005
#

v  -0.4683 0.0000 0.0126
v  -0.4683 0.0000 -0.0074
v  0.3317 0.0000 -0.0074
v  0.3317 0.0000 0.0126
v  -0.4683 1.0000 0.0126
v  0.3317 1.0000 0.0126
v  0.3317 1.0000 -0.0074
v  -0.4683 1.0000 -0.0074
# 8 vertices

vn -0.5774 -0.5774 0.5774
vn -0.5774 -0.5774 -0.5774
vn 0.5774 -0.5774 -0.5774
vn 0.5774 -0.5774 0.5774
vn -0.5774 0.5774 0.5774
vn 0.5774 0.5774 0.5774
vn 0.5774 0.5774 -0.5774
vn -0.5774 0.5774 -0.5774
# 8 vertex normals

vt 0.9986 0.9294 0.0000
vt 0.9986 0.9843 0.0000
vt 0.0024 0.9843 0.0000
vt 0.0024 0.9294 0.0000
vt 0.9990 0.9850 0.0000
vt 0.0028 0.9850 0.0000
vt 0.0028 0.9301 0.0000
vt 0.9990 0.9301 0.0000
vt 0.1792 0.0163 0.0000
vt 0.8340 0.0163 0.0000
vt 0.8340 0.8348 0.0000
vt 0.1792 0.8348 0.0000
vt 0.0049 0.9146 0.0000
vt 0.0049 0.8567 0.0000
vt 0.9962 0.8567 0.0000
vt 0.9962 0.9146 0.0000
vt 0.1802 0.0155 0.0000
vt 0.8350 0.0155 0.0000
vt 0.8350 0.8340 0.0000
vt 0.1802 0.8340 0.0000
vt 0.0049 0.9147 0.0000
vt 0.0049 0.8568 0.0000
vt 0.9961 0.8568 0.0000
vt 0.9961 0.9147 0.0000
# 24 texture coords

o Box005
g Box005
usemtl 21___Default
s 2
f 1/1/1 2/2/2 3/3/3 4/4/4 
s 4
f 5/5/5 6/6/6 7/7/7 8/8/8 
s 8
f 1/9/1 4/10/4 6/11/6 5/12/5 
s 16
f 4/13/4 3/14/3 7/15/7 6/16/6 
s 32
f 3/17/3 2/18/2 8/19/8 7/20/7 
s 64
f 2/21/2 1/22/1 5/23/5 8/24/8 
# 6 polygons

