# 3ds Max Wavefront OBJ Exporter v0.97b - (c)2007 guruware
# File Created: 11.01.2023 18:04:48

mtllib gasanotejida5x5.mtl

#
# object c012
#

v  -30.2576 10.5487 202.2282
v  -30.2576 10.5487 193.2998
v  -22.8019 9.7504 193.2998
v  -22.8019 10.5487 202.2282
v  -15.3462 9.7504 193.2998
v  -15.3462 10.5487 202.2282
v  -7.8905 9.7504 193.2998
v  -7.8905 10.5487 202.2282
v  -0.4348 10.5487 193.2998
v  -0.4348 10.5487 202.2282
v  -30.2576 10.5487 184.3714
v  -22.8019 9.7504 184.3714
v  -15.3462 9.3219 184.3714
v  -7.8905 9.7504 184.3714
v  -0.4348 10.5487 184.3714
v  -30.2576 10.5487 175.4429
v  -22.8019 9.7504 175.4429
v  -15.3462 9.7504 175.4429
v  -7.8905 9.7504 175.4429
v  -0.4348 10.5487 175.4429
v  -30.2576 10.5487 166.5145
v  -22.8019 10.5487 166.5145
v  -15.3462 10.5487 166.5145
v  -7.8905 10.5487 166.5145
v  -0.4348 10.5487 166.5145
v  -30.2576 10.6136 202.2282
v  -22.8019 10.6136 202.2282
v  -22.8019 11.4119 193.2998
v  -30.2576 10.6136 193.2998
v  -15.3462 10.6136 202.2282
v  -15.3462 11.4119 193.2998
v  -7.8905 10.6136 202.2282
v  -7.8905 11.4119 193.2998
v  -0.4348 10.6136 202.2282
v  -0.4348 10.6136 193.2998
v  -22.8019 11.4119 184.3714
v  -30.2576 10.6136 184.3714
v  -15.3462 11.8404 184.3714
v  -7.8905 11.4119 184.3714
v  -0.4348 10.6136 184.3714
v  -22.8019 11.4119 175.4429
v  -30.2576 10.6136 175.4429
v  -15.3462 11.4119 175.4429
v  -7.8905 11.4119 175.4429
v  -0.4348 10.6136 175.4429
v  -22.8019 10.6136 166.5145
v  -30.2576 10.6136 166.5145
v  -15.3462 10.6136 166.5145
v  -7.8905 10.6136 166.5145
v  -0.4348 10.6136 166.5145
# 50 vertices

vn -0.5774 -0.5774 0.5774
vn -0.7439 -0.6683 -0.0000
vn -0.0534 -0.9978 0.0387
vn 0.0000 -0.6791 0.7340
vn 0.0000 -0.9982 0.0597
vn 0.0534 -0.9978 0.0387
vn 0.7439 -0.6683 -0.0000
vn 0.5774 -0.5774 0.5774
vn -0.0823 -0.9966 -0.0000
vn 0.0000 -1.0000 -0.0000
vn 0.0823 -0.9966 -0.0000
vn -0.0534 -0.9978 -0.0387
vn 0.0000 -0.9982 -0.0597
vn 0.0534 -0.9978 -0.0387
vn -0.5774 -0.5774 -0.5774
vn 0.0000 -0.6791 -0.7340
vn 0.5774 -0.5774 -0.5774
vn -0.5774 0.5774 0.5774
vn 0.0000 0.6791 0.7340
vn -0.0534 0.9978 0.0387
vn -0.7439 0.6683 0.0000
vn 0.0000 0.9982 0.0597
vn 0.0534 0.9978 0.0387
vn 0.5774 0.5774 0.5774
vn 0.7439 0.6683 0.0000
vn -0.0823 0.9966 0.0000
vn 0.0000 1.0000 0.0000
vn 0.0823 0.9966 0.0000
vn -0.0534 0.9978 -0.0387
vn 0.0000 0.9982 -0.0597
vn 0.0534 0.9978 -0.0387
vn 0.0000 0.6791 -0.7340
vn -0.5774 0.5774 -0.5774
vn 0.5774 0.5774 -0.5774
# 34 vertex normals

vt 0.9780 0.0207 0.0000
vt 0.9718 0.2575 0.0000
vt 0.7383 0.2575 0.0000
vt 0.7383 0.0252 0.0000
vt 0.5033 0.2575 0.0000
vt 0.5033 0.0229 0.0000
vt 0.2683 0.2575 0.0000
vt 0.2676 0.0286 0.0000
vt 0.0333 0.2575 0.0000
vt 0.0265 0.0348 0.0000
vt 0.9733 0.5000 0.0000
vt 0.7383 0.5000 0.0000
vt 0.5033 0.5000 0.0000
vt 0.2683 0.5000 0.0000
vt 0.0378 0.5000 0.0000
vt 0.9689 0.7425 0.0000
vt 0.7383 0.7425 0.0000
vt 0.5033 0.7425 0.0000
vt 0.2683 0.7425 0.0000
vt 0.0378 0.7425 0.0000
vt 0.9733 0.9850 0.0000
vt 0.7383 0.9850 0.0000
vt 0.5033 0.9850 0.0000
vt 0.2683 0.9850 0.0000
vt 0.0333 0.9850 0.0000
vt 0.0265 0.0263 0.0000
vt 0.2718 0.0139 0.0000
vt 0.2752 0.2453 0.0000
vt 0.0254 0.2453 0.0000
vt 0.5137 0.0187 0.0000
vt 0.5125 0.2453 0.0000
vt 0.7499 0.0139 0.0000
vt 0.7499 0.2453 0.0000
vt 0.9813 0.0184 0.0000
vt 0.9797 0.2453 0.0000
vt 0.2752 0.4853 0.0000
vt 0.0288 0.4853 0.0000
vt 0.5125 0.4853 0.0000
vt 0.7499 0.4853 0.0000
vt 0.9812 0.4853 0.0000
vt 0.2752 0.7253 0.0000
vt 0.0427 0.7253 0.0000
vt 0.5125 0.7253 0.0000
vt 0.7499 0.7253 0.0000
vt 0.9705 0.7253 0.0000
vt 0.2732 0.9743 0.0000
vt 0.0406 0.9919 0.0000
vt 0.5125 0.9709 0.0000
vt 0.7499 0.9653 0.0000
vt 0.9716 0.9775 0.0000
vt 0.0000 0.0000 0.0000
vt 0.2500 0.0000 0.0000
vt 0.2500 1.0000 0.0000
vt 0.0000 1.0000 0.0000
vt 0.5000 0.0000 0.0000
vt 0.5000 1.0000 0.0000
vt 0.7500 0.0000 0.0000
vt 0.7500 1.0000 0.0000
vt 1.0000 0.0000 0.0000
vt 1.0000 1.0000 0.0000
# 60 texture coords

o c012
g c012
usemtl b_02
s 2
f 1/1/1 2/2/2 3/3/3 4/4/4 
f 4/4/4 3/3/3 5/5/5 6/6/4 
f 6/6/4 5/5/5 7/7/6 8/8/4 
f 8/8/4 7/7/6 9/9/7 10/10/8 
f 2/2/2 11/11/2 12/12/9 3/3/3 
f 3/3/3 12/12/9 13/13/10 5/5/5 
f 5/5/5 13/13/10 14/14/11 7/7/6 
f 7/7/6 14/14/11 15/15/7 9/9/7 
f 11/11/2 16/16/2 17/17/12 12/12/9 
f 12/12/9 17/17/12 18/18/13 13/13/10 
f 13/13/10 18/18/13 19/19/14 14/14/11 
f 14/14/11 19/19/14 20/20/7 15/15/7 
f 16/16/2 21/21/15 22/22/16 17/17/12 
f 17/17/12 22/22/16 23/23/16 18/18/13 
f 18/18/13 23/23/16 24/24/16 19/19/14 
f 19/19/14 24/24/16 25/25/17 20/20/7 
usemtl a_01
s 4
f 26/26/18 27/27/19 28/28/20 29/29/21 
f 27/27/19 30/30/19 31/31/22 28/28/20 
f 30/30/19 32/32/19 33/33/23 31/31/22 
f 32/32/19 34/34/24 35/35/25 33/33/23 
f 29/29/21 28/28/20 36/36/26 37/37/21 
f 28/28/20 31/31/22 38/38/27 36/36/26 
f 31/31/22 33/33/23 39/39/28 38/38/27 
f 33/33/23 35/35/25 40/40/25 39/39/28 
f 37/37/21 36/36/26 41/41/29 42/42/21 
f 36/36/26 38/38/27 43/43/30 41/41/29 
f 38/38/27 39/39/28 44/44/31 43/43/30 
f 39/39/28 40/40/25 45/45/25 44/44/31 
f 42/42/21 41/41/29 46/46/32 47/47/33 
f 41/41/29 43/43/30 48/48/32 46/46/32 
f 43/43/30 44/44/31 49/49/32 48/48/32 
f 44/44/31 45/45/25 50/50/34 49/49/32 
usemtl wire_148177027
s 8
f 1/51/1 4/52/4 27/53/19 26/54/18 
f 4/52/4 6/55/4 30/56/19 27/53/19 
f 6/55/4 8/57/4 32/58/19 30/56/19 
f 8/57/4 10/59/8 34/60/24 32/58/19 
s 16
f 10/51/8 9/52/7 35/53/25 34/54/24 
f 9/52/7 15/55/7 40/56/25 35/53/25 
f 15/55/7 20/57/7 45/58/25 40/56/25 
f 20/57/7 25/59/17 50/60/34 45/58/25 
s 32
f 25/51/17 24/52/16 49/53/32 50/54/34 
f 24/52/16 23/55/16 48/56/32 49/53/32 
f 23/55/16 22/57/16 46/58/32 48/56/32 
f 22/57/16 21/59/15 47/60/33 46/58/32 
s 64
f 21/51/15 16/52/2 42/53/21 47/54/33 
f 16/52/2 11/55/2 37/56/21 42/53/21 
f 11/55/2 2/57/2 29/58/21 37/56/21 
f 2/57/2 1/59/1 26/60/18 29/58/21 
# 48 polygons

