# 3ds Max Wavefront OBJ Exporter v0.97b - (c)2007 guruware
# File Created: 11.01.2023 18:00:53

mtllib gasaparafinada.mtl

#
# object c010
#

v  56.7917 13.6395 128.7742
v  56.8338 14.1292 142.5313
v  45.3417 12.8726 142.6111
v  45.2967 13.6129 128.8103
v  33.8466 12.8460 142.6472
v  33.8016 13.5863 128.8464
v  22.3515 12.8195 142.6833
v  22.3065 13.5597 128.8825
v  10.8535 14.0229 142.6756
v  10.8114 13.5332 128.9186
v  56.8759 14.6189 156.2883
v  45.3838 13.3623 156.3682
v  33.8903 12.6754 156.4278
v  22.3936 13.3092 156.4404
v  10.8955 14.5126 156.4327
v  56.9179 15.1087 170.0454
v  45.4258 13.8521 170.1252
v  33.9307 13.8255 170.1613
v  22.4356 13.7989 170.1974
v  10.9376 15.0023 170.1897
v  56.9600 15.5984 183.8024
v  45.4649 15.5718 183.8385
v  33.9698 15.5452 183.8746
v  22.4747 15.5187 183.9107
v  10.9796 15.4921 183.9468
v  56.7915 13.7394 128.7707
v  45.2964 13.7128 128.8067
v  45.3355 15.4326 142.5200
v  56.8336 14.2291 142.5277
v  33.8013 13.6863 128.8428
v  33.8404 15.4060 142.5561
v  22.3063 13.6597 128.8789
v  22.3453 15.3794 142.5922
v  10.8112 13.6331 128.9150
v  10.8532 14.1228 142.6721
v  45.3776 15.9223 156.2771
v  56.8756 14.7189 156.2848
v  33.8809 16.5561 156.2897
v  22.3874 15.8691 156.3493
v  10.8953 14.6125 156.4291
v  45.4196 16.4120 170.0341
v  56.9177 15.2086 170.0418
v  33.9245 16.3855 170.0702
v  22.4294 16.3589 170.1063
v  10.9373 15.1023 170.1862
v  45.4646 15.6718 183.8350
v  56.9597 15.6983 183.7989
v  33.9696 15.6452 183.8711
v  22.4745 15.6186 183.9072
v  10.9794 15.5920 183.9432
# 50 vertices

vn 0.5770 -0.5962 -0.5583
vn 0.7455 -0.6661 0.0214
vn 0.0557 -0.9984 -0.0034
vn -0.0006 -0.7048 -0.7094
vn 0.0022 -0.9997 -0.0241
vn -0.0511 -0.9987 -0.0030
vn -0.7423 -0.6696 0.0261
vn -0.5777 -0.5989 -0.5546
vn 0.0847 -0.9958 0.0352
vn 0.0024 -0.9994 0.0356
vn -0.0798 -0.9962 0.0357
vn 0.0559 -0.9957 0.0740
vn 0.0026 -0.9955 0.0951
vn -0.0509 -0.9959 0.0743
vn 0.5805 -0.5551 0.5957
vn 0.0039 -0.6526 0.7577
vn -0.5742 -0.5578 0.5993
vn 0.5742 0.5578 -0.5993
vn -0.0039 0.6526 -0.7577
vn 0.0509 0.9959 -0.0743
vn 0.7423 0.6696 -0.0261
vn -0.0026 0.9955 -0.0951
vn -0.0559 0.9957 -0.0740
vn -0.5805 0.5551 -0.5957
vn -0.7455 0.6661 -0.0214
vn 0.0798 0.9962 -0.0357
vn -0.0024 0.9994 -0.0356
vn -0.0847 0.9958 -0.0352
vn 0.0511 0.9987 0.0030
vn -0.0022 0.9997 0.0241
vn -0.0557 0.9984 0.0034
vn 0.0006 0.7048 0.7094
vn 0.5777 0.5989 0.5546
vn -0.5770 0.5962 0.5583
# 34 vertex normals

vt 0.9780 0.0207 0.0000
vt 0.9718 0.2575 0.0000
vt 0.7383 0.2575 0.0000
vt 0.7383 0.0252 0.0000
vt 0.5033 0.2575 0.0000
vt 0.5033 0.0229 0.0000
vt 0.2683 0.2575 0.0000
vt 0.2676 0.0286 0.0000
vt 0.0333 0.2575 0.0000
vt 0.0265 0.0348 0.0000
vt 0.9733 0.5000 0.0000
vt 0.7383 0.5000 0.0000
vt 0.5033 0.5000 0.0000
vt 0.2683 0.5000 0.0000
vt 0.0378 0.5000 0.0000
vt 0.9689 0.7425 0.0000
vt 0.7383 0.7425 0.0000
vt 0.5033 0.7425 0.0000
vt 0.2683 0.7425 0.0000
vt 0.0378 0.7425 0.0000
vt 0.9733 0.9850 0.0000
vt 0.7383 0.9850 0.0000
vt 0.5033 0.9850 0.0000
vt 0.2683 0.9850 0.0000
vt 0.0333 0.9850 0.0000
vt 0.0265 0.0263 0.0000
vt 0.2718 0.0139 0.0000
vt 0.2752 0.2453 0.0000
vt 0.0254 0.2453 0.0000
vt 0.5137 0.0187 0.0000
vt 0.5125 0.2453 0.0000
vt 0.7499 0.0139 0.0000
vt 0.7499 0.2453 0.0000
vt 0.9813 0.0184 0.0000
vt 0.9797 0.2453 0.0000
vt 0.2752 0.4853 0.0000
vt 0.0288 0.4853 0.0000
vt 0.5125 0.4853 0.0000
vt 0.7499 0.4853 0.0000
vt 0.9812 0.4853 0.0000
vt 0.2752 0.7253 0.0000
vt 0.0427 0.7253 0.0000
vt 0.5125 0.7253 0.0000
vt 0.7499 0.7253 0.0000
vt 0.9705 0.7253 0.0000
vt 0.2732 0.9743 0.0000
vt 0.0406 0.9919 0.0000
vt 0.5125 0.9709 0.0000
vt 0.7499 0.9653 0.0000
vt 0.9716 0.9775 0.0000
vt 0.0000 0.0000 0.0000
vt 0.2500 0.0000 0.0000
vt 0.2500 1.0000 0.0000
vt 0.0000 1.0000 0.0000
vt 0.5000 0.0000 0.0000
vt 0.5000 1.0000 0.0000
vt 0.7500 0.0000 0.0000
vt 0.7500 1.0000 0.0000
vt 1.0000 0.0000 0.0000
vt 1.0000 1.0000 0.0000
# 60 texture coords

o c010
g c010
usemtl Material__72
s 2
f 1/1/1 2/2/2 3/3/3 4/4/4 
f 4/4/4 3/3/3 5/5/5 6/6/4 
f 6/6/4 5/5/5 7/7/6 8/8/4 
f 8/8/4 7/7/6 9/9/7 10/10/8 
f 2/2/2 11/11/2 12/12/9 3/3/3 
f 3/3/3 12/12/9 13/13/10 5/5/5 
f 5/5/5 13/13/10 14/14/11 7/7/6 
f 7/7/6 14/14/11 15/15/7 9/9/7 
f 11/11/2 16/16/2 17/17/12 12/12/9 
f 12/12/9 17/17/12 18/18/13 13/13/10 
f 13/13/10 18/18/13 19/19/14 14/14/11 
f 14/14/11 19/19/14 20/20/7 15/15/7 
f 16/16/2 21/21/15 22/22/16 17/17/12 
f 17/17/12 22/22/16 23/23/16 18/18/13 
f 18/18/13 23/23/16 24/24/16 19/19/14 
f 19/19/14 24/24/16 25/25/17 20/20/7 
usemtl 07___Default
s 4
f 26/26/18 27/27/19 28/28/20 29/29/21 
f 27/27/19 30/30/19 31/31/22 28/28/20 
f 30/30/19 32/32/19 33/33/23 31/31/22 
f 32/32/19 34/34/24 35/35/25 33/33/23 
f 29/29/21 28/28/20 36/36/26 37/37/21 
f 28/28/20 31/31/22 38/38/27 36/36/26 
f 31/31/22 33/33/23 39/39/28 38/38/27 
f 33/33/23 35/35/25 40/40/25 39/39/28 
f 37/37/21 36/36/26 41/41/29 42/42/21 
f 36/36/26 38/38/27 43/43/30 41/41/29 
f 38/38/27 39/39/28 44/44/31 43/43/30 
f 39/39/28 40/40/25 45/45/25 44/44/31 
f 42/42/21 41/41/29 46/46/32 47/47/33 
f 41/41/29 43/43/30 48/48/32 46/46/32 
f 43/43/30 44/44/31 49/49/32 48/48/32 
f 44/44/31 45/45/25 50/50/34 49/49/32 
usemtl wire_148177027
s 8
f 1/51/1 4/52/4 27/53/19 26/54/18 
f 4/52/4 6/55/4 30/56/19 27/53/19 
f 6/55/4 8/57/4 32/58/19 30/56/19 
f 8/57/4 10/59/8 34/60/24 32/58/19 
s 16
f 10/51/8 9/52/7 35/53/25 34/54/24 
f 9/52/7 15/55/7 40/56/25 35/53/25 
f 15/55/7 20/57/7 45/58/25 40/56/25 
f 20/57/7 25/59/17 50/60/34 45/58/25 
s 32
f 25/51/17 24/52/16 49/53/32 50/54/34 
f 24/52/16 23/55/16 48/56/32 49/53/32 
f 23/55/16 22/57/16 46/58/32 48/56/32 
f 22/57/16 21/59/15 47/60/33 46/58/32 
s 64
f 21/51/15 16/52/2 42/53/21 47/54/33 
f 16/52/2 11/55/2 37/56/21 42/53/21 
f 11/55/2 2/57/2 29/58/21 37/56/21 
f 2/57/2 1/59/1 26/60/18 29/58/21 
# 48 polygons

